<svg xmlns="http://www.w3.org/2000/svg" width="360" height="360" viewBox="0 0 360 360">
<rect width="360" height="360" fill="#EEF3F8"/>
<g stroke="#1A3553" stroke-width="1.7" fill="none" stroke-linecap="round" stroke-linejoin="round" opacity="0.13">
<path d="M328.4,128.4 Q390.3,24.2 346.1,43.7" stroke-dasharray="1.5 6"/><path d="M165.7,61.5 Q153.6,47.2 71.0,117.1" stroke-dasharray="1.5 6"/><path d="M103.2,30.7 Q51.1,-49.3 24.7,-19.9" stroke-dasharray="1.5 6"/><path d="M89.2,130.7 Q127.0,101.8 98.9,153.2" stroke-dasharray="1.5 6"/><path d="M269.6,208.9 Q283.2,167.3 347.8,227.7" stroke-dasharray="1.5 6"/><path d="M128.8,166.6 Q181.1,92.4 117.6,131.4" stroke-dasharray="1.5 6"/>
<g transform="translate(330.0,-20.0) rotate(22.8) scale(0.997)"><circle r="8.5"/><path d="M0,-5.6 L2.8,0 L0,5.6 L-2.8,0 Z"/><circle r="1"/></g><g transform="translate(330.0,340.0) rotate(22.8) scale(0.997)"><circle r="8.5"/><path d="M0,-5.6 L2.8,0 L0,5.6 L-2.8,0 Z"/><circle r="1"/></g><g transform="translate(17.8,-17.2) rotate(-20.8) scale(0.910)"><rect x="-9.5" y="-3" width="19" height="3"/><path d="M-9.5,6 H9.5 M-7,3 V6 M0,3 V6 M7,3 V6 M-9.5,3 V0 M9.5,3 V0"/></g><g transform="translate(17.8,342.8) rotate(-20.8) scale(0.910)"><rect x="-9.5" y="-3" width="19" height="3"/><path d="M-9.5,6 H9.5 M-7,3 V6 M0,3 V6 M7,3 V6 M-9.5,3 V0 M9.5,3 V0"/></g><g transform="translate(377.8,-17.2) rotate(-20.8) scale(0.910)"><rect x="-9.5" y="-3" width="19" height="3"/><path d="M-9.5,6 H9.5 M-7,3 V6 M0,3 V6 M7,3 V6 M-9.5,3 V0 M9.5,3 V0"/></g><g transform="translate(377.8,342.8) rotate(-20.8) scale(0.910)"><rect x="-9.5" y="-3" width="19" height="3"/><path d="M-9.5,6 H9.5 M-7,3 V6 M0,3 V6 M7,3 V6 M-9.5,3 V0 M9.5,3 V0"/></g><g transform="translate(56.0,-24.2) rotate(-14.6) scale(0.933)"><rect x="-9.5" y="-5" width="19" height="10"/><path d="M-5.5,-5 V5 M-1.5,-5 V5 M2.5,-5 V5 M6.5,-5 V5"/></g><g transform="translate(56.0,335.8) rotate(-14.6) scale(0.933)"><rect x="-9.5" y="-5" width="19" height="10"/><path d="M-5.5,-5 V5 M-1.5,-5 V5 M2.5,-5 V5 M6.5,-5 V5"/></g><g transform="translate(101.6,-12.7) rotate(-0.1) scale(0.905)"><circle r="8.5"/><ellipse rx="3.6" ry="8.5"/><path d="M-8.5,0 H8.5 M-7.5,-4.2 H7.5 M-7.5,4.2 H7.5"/></g><g transform="translate(101.6,347.3) rotate(-0.1) scale(0.905)"><circle r="8.5"/><ellipse rx="3.6" ry="8.5"/><path d="M-8.5,0 H8.5 M-7.5,-4.2 H7.5 M-7.5,4.2 H7.5"/></g><g transform="translate(140.1,-15.8) rotate(20.3) scale(0.786)"><circle cy="-7" r="2.2"/><path d="M0,-4.8 V7.6 M-4,-3.5 H4 M-8,2.5 Q-8,8 0,8 Q8,8 8,2.5 M-8,2.5 l-1.8,-1.3 M-8,2.5 l1.8,-1.3 M8,2.5 l-1.8,-1.3 M8,2.5 l1.8,-1.3"/></g><g transform="translate(140.1,344.2) rotate(20.3) scale(0.786)"><circle cy="-7" r="2.2"/><path d="M0,-4.8 V7.6 M-4,-3.5 H4 M-8,2.5 Q-8,8 0,8 Q8,8 8,2.5 M-8,2.5 l-1.8,-1.3 M-8,2.5 l1.8,-1.3 M8,2.5 l-1.8,-1.3 M8,2.5 l1.8,-1.3"/></g><g transform="translate(173.2,331.3) rotate(-20.9) scale(0.847)"><path d="M0,-9 C-4.8,-9 -8.5,-5.3 -8.5,-0.5 C-8.5,6 0,10 0,10 C0,10 8.5,6 8.5,-0.5 C8.5,-5.3 4.8,-9 0,-9 Z"/><circle cy="-0.5" r="3.1"/></g><g transform="translate(231.0,-20.6) rotate(5.9) scale(0.876)"><circle r="8.5"/><ellipse rx="3.6" ry="8.5"/><path d="M-8.5,0 H8.5 M-7.5,-4.2 H7.5 M-7.5,4.2 H7.5"/></g><g transform="translate(231.0,339.4) rotate(5.9) scale(0.876)"><circle r="8.5"/><ellipse rx="3.6" ry="8.5"/><path d="M-8.5,0 H8.5 M-7.5,-4.2 H7.5 M-7.5,4.2 H7.5"/></g><g transform="translate(250.1,-15.1) rotate(-10.1) scale(0.930)"><path d="M-9,2 H9 L6.5,7.5 H-6.5 Z"/><rect x="-5" y="-4" width="4" height="6"/><rect x="0.6" y="-4" width="4" height="6"/><path d="M2,-7 H4.4 V-4"/><path d="M-9,9.6 Q-6.5,11.1 -4,9.6 T1,9.6 T6,9.6 T9,9.6"/></g><g transform="translate(250.1,344.9) rotate(-10.1) scale(0.930)"><path d="M-9,2 H9 L6.5,7.5 H-6.5 Z"/><rect x="-5" y="-4" width="4" height="6"/><rect x="0.6" y="-4" width="4" height="6"/><path d="M2,-7 H4.4 V-4"/><path d="M-9,9.6 Q-6.5,11.1 -4,9.6 T1,9.6 T6,9.6 T9,9.6"/></g><g transform="translate(301.7,329.8) rotate(11.8) scale(0.776)"><rect x="-9.5" y="-5" width="19" height="10"/><path d="M-5.5,-5 V5 M-1.5,-5 V5 M2.5,-5 V5 M6.5,-5 V5"/></g><g transform="translate(-23.9,-10.8) rotate(-19.2) scale(0.762)"><path d="M-8.5,0 A8.5,8.5 0 0,1 8.5,0 Z M0,0 V7 Q0,9.2 2.4,9.2 M-8.5,0 Q-6.4,-2.4 -4.25,0 T0,0 T4.25,0 T8.5,0"/></g><g transform="translate(-23.9,349.2) rotate(-19.2) scale(0.762)"><path d="M-8.5,0 A8.5,8.5 0 0,1 8.5,0 Z M0,0 V7 Q0,9.2 2.4,9.2 M-8.5,0 Q-6.4,-2.4 -4.25,0 T0,0 T4.25,0 T8.5,0"/></g><g transform="translate(336.1,-10.8) rotate(-19.2) scale(0.762)"><path d="M-8.5,0 A8.5,8.5 0 0,1 8.5,0 Z M0,0 V7 Q0,9.2 2.4,9.2 M-8.5,0 Q-6.4,-2.4 -4.25,0 T0,0 T4.25,0 T8.5,0"/></g><g transform="translate(336.1,349.2) rotate(-19.2) scale(0.762)"><path d="M-8.5,0 A8.5,8.5 0 0,1 8.5,0 Z M0,0 V7 Q0,9.2 2.4,9.2 M-8.5,0 Q-6.4,-2.4 -4.25,0 T0,0 T4.25,0 T8.5,0"/></g><g transform="translate(17.2,-25.5) rotate(-14.6) scale(0.763)"><path d="M-8.5,0 A8.5,8.5 0 0,1 8.5,0 Z M0,0 V7 Q0,9.2 2.4,9.2 M-8.5,0 Q-6.4,-2.4 -4.25,0 T0,0 T4.25,0 T8.5,0"/></g><g transform="translate(17.2,334.5) rotate(-14.6) scale(0.763)"><path d="M-8.5,0 A8.5,8.5 0 0,1 8.5,0 Z M0,0 V7 Q0,9.2 2.4,9.2 M-8.5,0 Q-6.4,-2.4 -4.25,0 T0,0 T4.25,0 T8.5,0"/></g><g transform="translate(377.2,-25.5) rotate(-14.6) scale(0.763)"><path d="M-8.5,0 A8.5,8.5 0 0,1 8.5,0 Z M0,0 V7 Q0,9.2 2.4,9.2 M-8.5,0 Q-6.4,-2.4 -4.25,0 T0,0 T4.25,0 T8.5,0"/></g><g transform="translate(377.2,334.5) rotate(-14.6) scale(0.763)"><path d="M-8.5,0 A8.5,8.5 0 0,1 8.5,0 Z M0,0 V7 Q0,9.2 2.4,9.2 M-8.5,0 Q-6.4,-2.4 -4.25,0 T0,0 T4.25,0 T8.5,0"/></g><g transform="translate(-2.4,27.4) rotate(-6.1) scale(0.963)"><circle r="8.5"/><path d="M0,-5.6 L2.8,0 L0,5.6 L-2.8,0 Z"/><circle r="1"/></g><g transform="translate(-2.4,387.4) rotate(-6.1) scale(0.963)"><circle r="8.5"/><path d="M0,-5.6 L2.8,0 L0,5.6 L-2.8,0 Z"/><circle r="1"/></g><g transform="translate(357.6,27.4) rotate(-6.1) scale(0.963)"><circle r="8.5"/><path d="M0,-5.6 L2.8,0 L0,5.6 L-2.8,0 Z"/><circle r="1"/></g><g transform="translate(357.6,387.4) rotate(-6.1) scale(0.963)"><circle r="8.5"/><path d="M0,-5.6 L2.8,0 L0,5.6 L-2.8,0 Z"/><circle r="1"/></g><g transform="translate(37.3,17.1) rotate(-2.6) scale(0.763)"><path d="M0,-10 C1.2,-10 1.8,-8.5 1.8,-6 L1.8,-2 L9,2 L9,4 L1.8,2.6 L1.8,6 L4.2,8.2 L4.2,9.4 L0,8.1 L-4.2,9.4 L-4.2,8.2 L-1.8,6 L-1.8,2.6 L-9,4 L-9,2 L-1.8,-2 L-1.8,-6 C-1.8,-8.5 -1.2,-10 0,-10 Z"/></g><g transform="translate(37.3,377.1) rotate(-2.6) scale(0.763)"><path d="M0,-10 C1.2,-10 1.8,-8.5 1.8,-6 L1.8,-2 L9,2 L9,4 L1.8,2.6 L1.8,6 L4.2,8.2 L4.2,9.4 L0,8.1 L-4.2,9.4 L-4.2,8.2 L-1.8,6 L-1.8,2.6 L-9,4 L-9,2 L-1.8,-2 L-1.8,-6 C-1.8,-8.5 -1.2,-10 0,-10 Z"/></g><g transform="translate(71.9,21.2) rotate(-9.7) scale(0.969)"><circle cy="-7" r="2.2"/><path d="M0,-4.8 V7.6 M-4,-3.5 H4 M-8,2.5 Q-8,8 0,8 Q8,8 8,2.5 M-8,2.5 l-1.8,-1.3 M-8,2.5 l1.8,-1.3 M8,2.5 l-1.8,-1.3 M8,2.5 l1.8,-1.3"/></g><g transform="translate(71.9,381.2) rotate(-9.7) scale(0.969)"><circle cy="-7" r="2.2"/><path d="M0,-4.8 V7.6 M-4,-3.5 H4 M-8,2.5 Q-8,8 0,8 Q8,8 8,2.5 M-8,2.5 l-1.8,-1.3 M-8,2.5 l1.8,-1.3 M8,2.5 l-1.8,-1.3 M8,2.5 l1.8,-1.3"/></g><g transform="translate(127.9,31.5) rotate(11.9) scale(0.800)"><path d="M0,-10 C1.2,-10 1.8,-8.5 1.8,-6 L1.8,-2 L9,2 L9,4 L1.8,2.6 L1.8,6 L4.2,8.2 L4.2,9.4 L0,8.1 L-4.2,9.4 L-4.2,8.2 L-1.8,6 L-1.8,2.6 L-9,4 L-9,2 L-1.8,-2 L-1.8,-6 C-1.8,-8.5 -1.2,-10 0,-10 Z"/></g><g transform="translate(152.4,24.3) rotate(-12.3) scale(0.866)"><path d="M0,-9 C-4.8,-9 -8.5,-5.3 -8.5,-0.5 C-8.5,6 0,10 0,10 C0,10 8.5,6 8.5,-0.5 C8.5,-5.3 4.8,-9 0,-9 Z"/><circle cy="-0.5" r="3.1"/></g><g transform="translate(152.4,384.3) rotate(-12.3) scale(0.866)"><path d="M0,-9 C-4.8,-9 -8.5,-5.3 -8.5,-0.5 C-8.5,6 0,10 0,10 C0,10 8.5,6 8.5,-0.5 C8.5,-5.3 4.8,-9 0,-9 Z"/><circle cy="-0.5" r="3.1"/></g><g transform="translate(192.4,24.5) rotate(-7.3) scale(0.921)"><circle r="8.5"/><ellipse rx="3.6" ry="8.5"/><path d="M-8.5,0 H8.5 M-7.5,-4.2 H7.5 M-7.5,4.2 H7.5"/></g><g transform="translate(192.4,384.5) rotate(-7.3) scale(0.921)"><circle r="8.5"/><ellipse rx="3.6" ry="8.5"/><path d="M-8.5,0 H8.5 M-7.5,-4.2 H7.5 M-7.5,4.2 H7.5"/></g><g transform="translate(236.2,17.1) rotate(-19.2) scale(0.827)"><path d="M0,-9 C-4.8,-9 -8.5,-5.3 -8.5,-0.5 C-8.5,6 0,10 0,10 C0,10 8.5,6 8.5,-0.5 C8.5,-5.3 4.8,-9 0,-9 Z"/><circle cy="-0.5" r="3.1"/></g><g transform="translate(236.2,377.1) rotate(-19.2) scale(0.827)"><path d="M0,-9 C-4.8,-9 -8.5,-5.3 -8.5,-0.5 C-8.5,6 0,10 0,10 C0,10 8.5,6 8.5,-0.5 C8.5,-5.3 4.8,-9 0,-9 Z"/><circle cy="-0.5" r="3.1"/></g><g transform="translate(285.6,13.6) rotate(13.3) scale(0.827)"><rect x="-9" y="-4" width="10.5" height="9"/><path d="M1.5,-0.5 H6.6 L9.6,2.5 V5 H1.5"/><circle cx="-5" cy="6.6" r="2"/><circle cx="6" cy="6.6" r="2"/></g><g transform="translate(285.6,373.6) rotate(13.3) scale(0.827)"><rect x="-9" y="-4" width="10.5" height="9"/><path d="M1.5,-0.5 H6.6 L9.6,2.5 V5 H1.5"/><circle cx="-5" cy="6.6" r="2"/><circle cx="6" cy="6.6" r="2"/></g><g transform="translate(313.1,22.1) rotate(15.0) scale(0.924)"><rect x="-9" y="-4" width="10.5" height="9"/><path d="M1.5,-0.5 H6.6 L9.6,2.5 V5 H1.5"/><circle cx="-5" cy="6.6" r="2"/><circle cx="6" cy="6.6" r="2"/></g><g transform="translate(313.1,382.1) rotate(15.0) scale(0.924)"><rect x="-9" y="-4" width="10.5" height="9"/><path d="M1.5,-0.5 H6.6 L9.6,2.5 V5 H1.5"/><circle cx="-5" cy="6.6" r="2"/><circle cx="6" cy="6.6" r="2"/></g><g transform="translate(7.1,30.8) rotate(-3.4) scale(0.921)"><circle r="8.5"/><path d="M0,-8.5 V-6.6 M0,8.5 V6.6 M-8.5,0 H-6.6 M8.5,0 H6.6 M0,0.4 V-5 M0,0.4 L4,2.4"/></g><g transform="translate(367.1,30.8) rotate(-3.4) scale(0.921)"><circle r="8.5"/><path d="M0,-8.5 V-6.6 M0,8.5 V6.6 M-8.5,0 H-6.6 M8.5,0 H6.6 M0,0.4 V-5 M0,0.4 L4,2.4"/></g><g transform="translate(41.7,23.8) rotate(5.6) scale(0.869)"><path d="M0,-10 C1.2,-10 1.8,-8.5 1.8,-6 L1.8,-2 L9,2 L9,4 L1.8,2.6 L1.8,6 L4.2,8.2 L4.2,9.4 L0,8.1 L-4.2,9.4 L-4.2,8.2 L-1.8,6 L-1.8,2.6 L-9,4 L-9,2 L-1.8,-2 L-1.8,-6 C-1.8,-8.5 -1.2,-10 0,-10 Z"/></g><g transform="translate(41.7,383.8) rotate(5.6) scale(0.869)"><path d="M0,-10 C1.2,-10 1.8,-8.5 1.8,-6 L1.8,-2 L9,2 L9,4 L1.8,2.6 L1.8,6 L4.2,8.2 L4.2,9.4 L0,8.1 L-4.2,9.4 L-4.2,8.2 L-1.8,6 L-1.8,2.6 L-9,4 L-9,2 L-1.8,-2 L-1.8,-6 C-1.8,-8.5 -1.2,-10 0,-10 Z"/></g><g transform="translate(-27.2,58.3) rotate(9.2) scale(0.944)"><circle cy="-7" r="2.2"/><path d="M0,-4.8 V7.6 M-4,-3.5 H4 M-8,2.5 Q-8,8 0,8 Q8,8 8,2.5 M-8,2.5 l-1.8,-1.3 M-8,2.5 l1.8,-1.3 M8,2.5 l-1.8,-1.3 M8,2.5 l1.8,-1.3"/></g><g transform="translate(332.8,58.3) rotate(9.2) scale(0.944)"><circle cy="-7" r="2.2"/><path d="M0,-4.8 V7.6 M-4,-3.5 H4 M-8,2.5 Q-8,8 0,8 Q8,8 8,2.5 M-8,2.5 l-1.8,-1.3 M-8,2.5 l1.8,-1.3 M8,2.5 l-1.8,-1.3 M8,2.5 l1.8,-1.3"/></g><g transform="translate(10.8,54.5) rotate(5.2) scale(0.951)"><rect x="-9" y="-4" width="10.5" height="9"/><path d="M1.5,-0.5 H6.6 L9.6,2.5 V5 H1.5"/><circle cx="-5" cy="6.6" r="2"/><circle cx="6" cy="6.6" r="2"/></g><g transform="translate(370.8,54.5) rotate(5.2) scale(0.951)"><rect x="-9" y="-4" width="10.5" height="9"/><path d="M1.5,-0.5 H6.6 L9.6,2.5 V5 H1.5"/><circle cx="-5" cy="6.6" r="2"/><circle cx="6" cy="6.6" r="2"/></g><g transform="translate(52.1,62.4) rotate(16.9) scale(0.879)"><path d="M-4,8 V-8 H8 M-4,-8 L-7,-4 M-4,-4 L2,-8 M8,-8 V-4 L5,-1 M5,-1 V1.2"/><circle cx="-4" cy="9.4" r="1.3"/></g><g transform="translate(93.5,58.5) rotate(9.3) scale(0.854)"><circle r="8.5"/><ellipse rx="3.6" ry="8.5"/><path d="M-8.5,0 H8.5 M-7.5,-4.2 H7.5 M-7.5,4.2 H7.5"/></g><g transform="translate(142.7,59.5) rotate(13.8) scale(0.784)"><path d="M0,-9 C-4.8,-9 -8.5,-5.3 -8.5,-0.5 C-8.5,6 0,10 0,10 C0,10 8.5,6 8.5,-0.5 C8.5,-5.3 4.8,-9 0,-9 Z"/><circle cy="-0.5" r="3.1"/></g><g transform="translate(186.5,65.9) rotate(6.5) scale(0.754)"><circle cy="-7" r="2.2"/><path d="M0,-4.8 V7.6 M-4,-3.5 H4 M-8,2.5 Q-8,8 0,8 Q8,8 8,2.5 M-8,2.5 l-1.8,-1.3 M-8,2.5 l1.8,-1.3 M8,2.5 l-1.8,-1.3 M8,2.5 l1.8,-1.3"/></g><g transform="translate(229.7,64.0) rotate(-0.9) scale(0.963)"><circle r="8.5"/><path d="M0,-5.6 L2.8,0 L0,5.6 L-2.8,0 Z"/><circle r="1"/></g><g transform="translate(263.0,66.0) rotate(13.4) scale(0.862)"><path d="M-4,8 V-8 H8 M-4,-8 L-7,-4 M-4,-4 L2,-8 M8,-8 V-4 L5,-1 M5,-1 V1.2"/><circle cx="-4" cy="9.4" r="1.3"/></g><g transform="translate(296.6,49.7) rotate(-20.7) scale(0.884)"><path d="M0,-9 V6 M-9,-5.5 H9 M-3.5,8 H3.5"/><path d="M-9,-5.5 L-11.3,0 H-6.7 Z M9,-5.5 L6.7,0 H11.3 Z"/></g><g transform="translate(-18.3,71.8) rotate(6.5) scale(0.831)"><circle r="8.5"/><path d="M0,-8.5 V-6.6 M0,8.5 V6.6 M-8.5,0 H-6.6 M8.5,0 H6.6 M0,0.4 V-5 M0,0.4 L4,2.4"/></g><g transform="translate(341.7,71.8) rotate(6.5) scale(0.831)"><circle r="8.5"/><path d="M0,-8.5 V-6.6 M0,8.5 V6.6 M-8.5,0 H-6.6 M8.5,0 H6.6 M0,0.4 V-5 M0,0.4 L4,2.4"/></g><g transform="translate(19.8,63.3) rotate(8.1) scale(0.943)"><rect x="-9.5" y="-5" width="19" height="10"/><path d="M-5.5,-5 V5 M-1.5,-5 V5 M2.5,-5 V5 M6.5,-5 V5"/></g><g transform="translate(379.8,63.3) rotate(8.1) scale(0.943)"><rect x="-9.5" y="-5" width="19" height="10"/><path d="M-5.5,-5 V5 M-1.5,-5 V5 M2.5,-5 V5 M6.5,-5 V5"/></g><g transform="translate(-3.6,97.9) rotate(-9.3) scale(0.830)"><path d="M0,-9 C-4.8,-9 -8.5,-5.3 -8.5,-0.5 C-8.5,6 0,10 0,10 C0,10 8.5,6 8.5,-0.5 C8.5,-5.3 4.8,-9 0,-9 Z"/><circle cy="-0.5" r="3.1"/></g><g transform="translate(356.4,97.9) rotate(-9.3) scale(0.830)"><path d="M0,-9 C-4.8,-9 -8.5,-5.3 -8.5,-0.5 C-8.5,6 0,10 0,10 C0,10 8.5,6 8.5,-0.5 C8.5,-5.3 4.8,-9 0,-9 Z"/><circle cy="-0.5" r="3.1"/></g><g transform="translate(47.2,108.5) rotate(19.0) scale(0.950)"><circle r="8.5"/><ellipse rx="3.6" ry="8.5"/><path d="M-8.5,0 H8.5 M-7.5,-4.2 H7.5 M-7.5,4.2 H7.5"/></g><g transform="translate(73.7,111.8) rotate(19.0) scale(0.863)"><path d="M0,-10 C1.2,-10 1.8,-8.5 1.8,-6 L1.8,-2 L9,2 L9,4 L1.8,2.6 L1.8,6 L4.2,8.2 L4.2,9.4 L0,8.1 L-4.2,9.4 L-4.2,8.2 L-1.8,6 L-1.8,2.6 L-9,4 L-9,2 L-1.8,-2 L-1.8,-6 C-1.8,-8.5 -1.2,-10 0,-10 Z"/></g><g transform="translate(119.1,101.0) rotate(-20.2) scale(0.784)"><rect x="-7" y="-6" width="14" height="13"/><path d="M-7,-1.5 H7 M0,-6 V7 M-7,-6 L0,-9.5 L7,-6"/></g><g transform="translate(150.2,103.2) rotate(-19.4) scale(0.885)"><path d="M0,-10 C1.2,-10 1.8,-8.5 1.8,-6 L1.8,-2 L9,2 L9,4 L1.8,2.6 L1.8,6 L4.2,8.2 L4.2,9.4 L0,8.1 L-4.2,9.4 L-4.2,8.2 L-1.8,6 L-1.8,2.6 L-9,4 L-9,2 L-1.8,-2 L-1.8,-6 C-1.8,-8.5 -1.2,-10 0,-10 Z"/></g><g transform="translate(193.7,107.5) rotate(10.8) scale(0.853)"><path d="M-9,2 H9 L6.5,7.5 H-6.5 Z"/><rect x="-5" y="-4" width="4" height="6"/><rect x="0.6" y="-4" width="4" height="6"/><path d="M2,-7 H4.4 V-4"/><path d="M-9,9.6 Q-6.5,11.1 -4,9.6 T1,9.6 T6,9.6 T9,9.6"/></g><g transform="translate(230.4,101.4) rotate(10.8) scale(0.902)"><path d="M0,-10 C1.2,-10 1.8,-8.5 1.8,-6 L1.8,-2 L9,2 L9,4 L1.8,2.6 L1.8,6 L4.2,8.2 L4.2,9.4 L0,8.1 L-4.2,9.4 L-4.2,8.2 L-1.8,6 L-1.8,2.6 L-9,4 L-9,2 L-1.8,-2 L-1.8,-6 C-1.8,-8.5 -1.2,-10 0,-10 Z"/></g><g transform="translate(279.3,101.7) rotate(-21.4) scale(0.795)"><path d="M0,-9 C-4.8,-9 -8.5,-5.3 -8.5,-0.5 C-8.5,6 0,10 0,10 C0,10 8.5,6 8.5,-0.5 C8.5,-5.3 4.8,-9 0,-9 Z"/><circle cy="-0.5" r="3.1"/></g><g transform="translate(330.8,111.9) rotate(-12.0) scale(0.970)"><path d="M-6.5,-9 H3 L6.5,-5.5 V9 H-6.5 Z M3,-9 V-5.5 H6.5"/><path d="M-3.5,-2 H3.5 M-3.5,1.5 H3.5 M-3.5,5 H1"/></g><g transform="translate(-11.9,102.4) rotate(-4.8) scale(0.996)"><rect x="-9.5" y="-3" width="19" height="3"/><path d="M-9.5,6 H9.5 M-7,3 V6 M0,3 V6 M7,3 V6 M-9.5,3 V0 M9.5,3 V0"/></g><g transform="translate(348.1,102.4) rotate(-4.8) scale(0.996)"><rect x="-9.5" y="-3" width="19" height="3"/><path d="M-9.5,6 H9.5 M-7,3 V6 M0,3 V6 M7,3 V6 M-9.5,3 V0 M9.5,3 V0"/></g><g transform="translate(46.7,105.7) rotate(23.2) scale(0.784)"><path d="M-4,8 V-8 H8 M-4,-8 L-7,-4 M-4,-4 L2,-8 M8,-8 V-4 L5,-1 M5,-1 V1.2"/><circle cx="-4" cy="9.4" r="1.3"/></g><g transform="translate(-16.3,149.5) rotate(1.3) scale(0.986)"><rect x="-7" y="-6" width="14" height="13"/><path d="M-7,-1.5 H7 M0,-6 V7 M-7,-6 L0,-9.5 L7,-6"/></g><g transform="translate(343.7,149.5) rotate(1.3) scale(0.986)"><rect x="-7" y="-6" width="14" height="13"/><path d="M-7,-1.5 H7 M0,-6 V7 M-7,-6 L0,-9.5 L7,-6"/></g><g transform="translate(31.3,129.9) rotate(-14.5) scale(0.915)"><path d="M0,-9 C-4.8,-9 -8.5,-5.3 -8.5,-0.5 C-8.5,6 0,10 0,10 C0,10 8.5,6 8.5,-0.5 C8.5,-5.3 4.8,-9 0,-9 Z"/><circle cy="-0.5" r="3.1"/></g><g transform="translate(55.9,130.1) rotate(-23.1) scale(0.974)"><rect x="-9" y="-4" width="10.5" height="9"/><path d="M1.5,-0.5 H6.6 L9.6,2.5 V5 H1.5"/><circle cx="-5" cy="6.6" r="2"/><circle cx="6" cy="6.6" r="2"/></g><g transform="translate(92.9,134.6) rotate(11.2) scale(0.812)"><path d="M0,-10 C1.2,-10 1.8,-8.5 1.8,-6 L1.8,-2 L9,2 L9,4 L1.8,2.6 L1.8,6 L4.2,8.2 L4.2,9.4 L0,8.1 L-4.2,9.4 L-4.2,8.2 L-1.8,6 L-1.8,2.6 L-9,4 L-9,2 L-1.8,-2 L-1.8,-6 C-1.8,-8.5 -1.2,-10 0,-10 Z"/></g><g transform="translate(148.8,148.8) rotate(2.1) scale(0.862)"><circle r="8.5"/><path d="M0,-8.5 V-6.6 M0,8.5 V6.6 M-8.5,0 H-6.6 M8.5,0 H6.6 M0,0.4 V-5 M0,0.4 L4,2.4"/></g><g transform="translate(185.9,148.8) rotate(-15.1) scale(0.832)"><rect x="-9.5" y="-3" width="19" height="3"/><path d="M-9.5,6 H9.5 M-7,3 V6 M0,3 V6 M7,3 V6 M-9.5,3 V0 M9.5,3 V0"/></g><g transform="translate(214.5,133.5) rotate(-7.0) scale(0.982)"><rect x="-9" y="-4" width="10.5" height="9"/><path d="M1.5,-0.5 H6.6 L9.6,2.5 V5 H1.5"/><circle cx="-5" cy="6.6" r="2"/><circle cx="6" cy="6.6" r="2"/></g><g transform="translate(257.8,134.5) rotate(-5.3) scale(0.864)"><rect x="-9.5" y="-5" width="19" height="10"/><path d="M-5.5,-5 V5 M-1.5,-5 V5 M2.5,-5 V5 M6.5,-5 V5"/></g><g transform="translate(298.9,146.6) rotate(0.1) scale(0.767)"><path d="M0,-9 V6 M-9,-5.5 H9 M-3.5,8 H3.5"/><path d="M-9,-5.5 L-11.3,0 H-6.7 Z M9,-5.5 L6.7,0 H11.3 Z"/></g><g transform="translate(-16.7,152.0) rotate(-16.3) scale(0.868)"><path d="M-8.5,0 A8.5,8.5 0 0,1 8.5,0 Z M0,0 V7 Q0,9.2 2.4,9.2 M-8.5,0 Q-6.4,-2.4 -4.25,0 T0,0 T4.25,0 T8.5,0"/></g><g transform="translate(343.3,152.0) rotate(-16.3) scale(0.868)"><path d="M-8.5,0 A8.5,8.5 0 0,1 8.5,0 Z M0,0 V7 Q0,9.2 2.4,9.2 M-8.5,0 Q-6.4,-2.4 -4.25,0 T0,0 T4.25,0 T8.5,0"/></g><g transform="translate(28.9,143.9) rotate(9.2) scale(0.893)"><rect x="-9.5" y="-3" width="19" height="3"/><path d="M-9.5,6 H9.5 M-7,3 V6 M0,3 V6 M7,3 V6 M-9.5,3 V0 M9.5,3 V0"/></g><g transform="translate(10.5,176.1) rotate(6.0) scale(0.847)"><circle r="8.5"/><path d="M0,-5.6 L2.8,0 L0,5.6 L-2.8,0 Z"/><circle r="1"/></g><g transform="translate(370.5,176.1) rotate(6.0) scale(0.847)"><circle r="8.5"/><path d="M0,-5.6 L2.8,0 L0,5.6 L-2.8,0 Z"/><circle r="1"/></g><g transform="translate(41.0,186.5) rotate(15.3) scale(0.880)"><circle cy="-7" r="2.2"/><path d="M0,-4.8 V7.6 M-4,-3.5 H4 M-8,2.5 Q-8,8 0,8 Q8,8 8,2.5 M-8,2.5 l-1.8,-1.3 M-8,2.5 l1.8,-1.3 M8,2.5 l-1.8,-1.3 M8,2.5 l1.8,-1.3"/></g><g transform="translate(78.9,179.8) rotate(-3.2) scale(0.917)"><rect x="-9.5" y="-5" width="19" height="10"/><path d="M-5.5,-5 V5 M-1.5,-5 V5 M2.5,-5 V5 M6.5,-5 V5"/></g><g transform="translate(118.9,188.4) rotate(9.8) scale(0.862)"><path d="M0,-9 V6 M-9,-5.5 H9 M-3.5,8 H3.5"/><path d="M-9,-5.5 L-11.3,0 H-6.7 Z M9,-5.5 L6.7,0 H11.3 Z"/></g><g transform="translate(167.7,170.5) rotate(-9.2) scale(0.852)"><path d="M-6.5,-9 H3 L6.5,-5.5 V9 H-6.5 Z M3,-9 V-5.5 H6.5"/><path d="M-3.5,-2 H3.5 M-3.5,1.5 H3.5 M-3.5,5 H1"/></g><g transform="translate(201.1,190.7) rotate(-13.1) scale(0.937)"><path d="M0,-9 V6 M-9,-5.5 H9 M-3.5,8 H3.5"/><path d="M-9,-5.5 L-11.3,0 H-6.7 Z M9,-5.5 L6.7,0 H11.3 Z"/></g><g transform="translate(237.1,187.9) rotate(21.2) scale(0.899)"><rect x="-9" y="-4" width="10.5" height="9"/><path d="M1.5,-0.5 H6.6 L9.6,2.5 V5 H1.5"/><circle cx="-5" cy="6.6" r="2"/><circle cx="6" cy="6.6" r="2"/></g><g transform="translate(285.0,170.8) rotate(-2.2) scale(0.938)"><circle cy="-7" r="2.2"/><path d="M0,-4.8 V7.6 M-4,-3.5 H4 M-8,2.5 Q-8,8 0,8 Q8,8 8,2.5 M-8,2.5 l-1.8,-1.3 M-8,2.5 l1.8,-1.3 M8,2.5 l-1.8,-1.3 M8,2.5 l1.8,-1.3"/></g><g transform="translate(328.0,170.4) rotate(-10.8) scale(0.972)"><rect x="-7" y="-6" width="14" height="13"/><path d="M-7,-1.5 H7 M0,-6 V7 M-7,-6 L0,-9.5 L7,-6"/></g><g transform="translate(-7.6,168.9) rotate(9.6) scale(0.879)"><path d="M-6.5,-9 H3 L6.5,-5.5 V9 H-6.5 Z M3,-9 V-5.5 H6.5"/><path d="M-3.5,-2 H3.5 M-3.5,1.5 H3.5 M-3.5,5 H1"/></g><g transform="translate(352.4,168.9) rotate(9.6) scale(0.879)"><path d="M-6.5,-9 H3 L6.5,-5.5 V9 H-6.5 Z M3,-9 V-5.5 H6.5"/><path d="M-3.5,-2 H3.5 M-3.5,1.5 H3.5 M-3.5,5 H1"/></g><g transform="translate(47.7,179.4) rotate(-11.4) scale(0.941)"><rect x="-9.5" y="-5" width="19" height="10"/><path d="M-5.5,-5 V5 M-1.5,-5 V5 M2.5,-5 V5 M6.5,-5 V5"/></g><g transform="translate(-13.3,227.5) rotate(5.2) scale(0.980)"><circle r="8.5"/><path d="M0,-8.5 V-6.6 M0,8.5 V6.6 M-8.5,0 H-6.6 M8.5,0 H6.6 M0,0.4 V-5 M0,0.4 L4,2.4"/></g><g transform="translate(346.7,227.5) rotate(5.2) scale(0.980)"><circle r="8.5"/><path d="M0,-8.5 V-6.6 M0,8.5 V6.6 M-8.5,0 H-6.6 M8.5,0 H6.6 M0,0.4 V-5 M0,0.4 L4,2.4"/></g><g transform="translate(24.2,217.9) rotate(15.4) scale(0.948)"><rect x="-9" y="-4" width="10.5" height="9"/><path d="M1.5,-0.5 H6.6 L9.6,2.5 V5 H1.5"/><circle cx="-5" cy="6.6" r="2"/><circle cx="6" cy="6.6" r="2"/></g><g transform="translate(384.2,217.9) rotate(15.4) scale(0.948)"><rect x="-9" y="-4" width="10.5" height="9"/><path d="M1.5,-0.5 H6.6 L9.6,2.5 V5 H1.5"/><circle cx="-5" cy="6.6" r="2"/><circle cx="6" cy="6.6" r="2"/></g><g transform="translate(56.5,228.6) rotate(-18.7) scale(0.806)"><rect x="-9" y="-4" width="10.5" height="9"/><path d="M1.5,-0.5 H6.6 L9.6,2.5 V5 H1.5"/><circle cx="-5" cy="6.6" r="2"/><circle cx="6" cy="6.6" r="2"/></g><g transform="translate(102.9,218.9) rotate(-12.8) scale(0.794)"><path d="M-9,2 H9 L6.5,7.5 H-6.5 Z"/><rect x="-5" y="-4" width="4" height="6"/><rect x="0.6" y="-4" width="4" height="6"/><path d="M2,-7 H4.4 V-4"/><path d="M-9,9.6 Q-6.5,11.1 -4,9.6 T1,9.6 T6,9.6 T9,9.6"/></g><g transform="translate(150.2,210.4) rotate(-7.3) scale(0.878)"><path d="M0,-9 V6 M-9,-5.5 H9 M-3.5,8 H3.5"/><path d="M-9,-5.5 L-11.3,0 H-6.7 Z M9,-5.5 L6.7,0 H11.3 Z"/></g><g transform="translate(171.4,230.1) rotate(18.2) scale(0.833)"><path d="M-9,2 H9 L6.5,7.5 H-6.5 Z"/><rect x="-5" y="-4" width="4" height="6"/><rect x="0.6" y="-4" width="4" height="6"/><path d="M2,-7 H4.4 V-4"/><path d="M-9,9.6 Q-6.5,11.1 -4,9.6 T1,9.6 T6,9.6 T9,9.6"/></g><g transform="translate(229.8,227.0) rotate(-18.1) scale(0.821)"><circle r="8.5"/><path d="M0,-8.5 V-6.6 M0,8.5 V6.6 M-8.5,0 H-6.6 M8.5,0 H6.6 M0,0.4 V-5 M0,0.4 L4,2.4"/></g><g transform="translate(250.9,229.9) rotate(-19.9) scale(0.890)"><rect x="-9.5" y="-5" width="19" height="10"/><path d="M-5.5,-5 V5 M-1.5,-5 V5 M2.5,-5 V5 M6.5,-5 V5"/></g><g transform="translate(306.6,221.9) rotate(-9.0) scale(0.978)"><rect x="-9.5" y="-5" width="19" height="10"/><path d="M-5.5,-5 V5 M-1.5,-5 V5 M2.5,-5 V5 M6.5,-5 V5"/></g><g transform="translate(-16.5,216.0) rotate(-23.6) scale(0.987)"><rect x="-9" y="-4" width="10.5" height="9"/><path d="M1.5,-0.5 H6.6 L9.6,2.5 V5 H1.5"/><circle cx="-5" cy="6.6" r="2"/><circle cx="6" cy="6.6" r="2"/></g><g transform="translate(343.5,216.0) rotate(-23.6) scale(0.987)"><rect x="-9" y="-4" width="10.5" height="9"/><path d="M1.5,-0.5 H6.6 L9.6,2.5 V5 H1.5"/><circle cx="-5" cy="6.6" r="2"/><circle cx="6" cy="6.6" r="2"/></g><g transform="translate(17.2,214.1) rotate(21.6) scale(0.770)"><path d="M-8.5,0 A8.5,8.5 0 0,1 8.5,0 Z M0,0 V7 Q0,9.2 2.4,9.2 M-8.5,0 Q-6.4,-2.4 -4.25,0 T0,0 T4.25,0 T8.5,0"/></g><g transform="translate(377.2,214.1) rotate(21.6) scale(0.770)"><path d="M-8.5,0 A8.5,8.5 0 0,1 8.5,0 Z M0,0 V7 Q0,9.2 2.4,9.2 M-8.5,0 Q-6.4,-2.4 -4.25,0 T0,0 T4.25,0 T8.5,0"/></g><g transform="translate(-1.7,257.7) rotate(-7.8) scale(0.913)"><rect x="-9" y="-4" width="10.5" height="9"/><path d="M1.5,-0.5 H6.6 L9.6,2.5 V5 H1.5"/><circle cx="-5" cy="6.6" r="2"/><circle cx="6" cy="6.6" r="2"/></g><g transform="translate(358.3,257.7) rotate(-7.8) scale(0.913)"><rect x="-9" y="-4" width="10.5" height="9"/><path d="M1.5,-0.5 H6.6 L9.6,2.5 V5 H1.5"/><circle cx="-5" cy="6.6" r="2"/><circle cx="6" cy="6.6" r="2"/></g><g transform="translate(30.2,248.9) rotate(-12.5) scale(0.805)"><path d="M0,-9 C-4.8,-9 -8.5,-5.3 -8.5,-0.5 C-8.5,6 0,10 0,10 C0,10 8.5,6 8.5,-0.5 C8.5,-5.3 4.8,-9 0,-9 Z"/><circle cy="-0.5" r="3.1"/></g><g transform="translate(82.7,255.0) rotate(-22.2) scale(0.882)"><circle cy="-7" r="2.2"/><path d="M0,-4.8 V7.6 M-4,-3.5 H4 M-8,2.5 Q-8,8 0,8 Q8,8 8,2.5 M-8,2.5 l-1.8,-1.3 M-8,2.5 l1.8,-1.3 M8,2.5 l-1.8,-1.3 M8,2.5 l1.8,-1.3"/></g><g transform="translate(109.4,269.9) rotate(20.8) scale(0.901)"><path d="M0,-9 V6 M-9,-5.5 H9 M-3.5,8 H3.5"/><path d="M-9,-5.5 L-11.3,0 H-6.7 Z M9,-5.5 L6.7,0 H11.3 Z"/></g><g transform="translate(160.4,261.8) rotate(-23.3) scale(0.767)"><path d="M-9,2 H9 L6.5,7.5 H-6.5 Z"/><rect x="-5" y="-4" width="4" height="6"/><rect x="0.6" y="-4" width="4" height="6"/><path d="M2,-7 H4.4 V-4"/><path d="M-9,9.6 Q-6.5,11.1 -4,9.6 T1,9.6 T6,9.6 T9,9.6"/></g><g transform="translate(204.6,257.3) rotate(9.8) scale(0.988)"><path d="M0,-9 V6 M-9,-5.5 H9 M-3.5,8 H3.5"/><path d="M-9,-5.5 L-11.3,0 H-6.7 Z M9,-5.5 L6.7,0 H11.3 Z"/></g><g transform="translate(240.1,252.2) rotate(10.6) scale(0.779)"><path d="M-9,2 H9 L6.5,7.5 H-6.5 Z"/><rect x="-5" y="-4" width="4" height="6"/><rect x="0.6" y="-4" width="4" height="6"/><path d="M2,-7 H4.4 V-4"/><path d="M-9,9.6 Q-6.5,11.1 -4,9.6 T1,9.6 T6,9.6 T9,9.6"/></g><g transform="translate(290.5,249.2) rotate(-18.1) scale(0.822)"><rect x="-9" y="-4" width="10.5" height="9"/><path d="M1.5,-0.5 H6.6 L9.6,2.5 V5 H1.5"/><circle cx="-5" cy="6.6" r="2"/><circle cx="6" cy="6.6" r="2"/></g><g transform="translate(314.3,265.8) rotate(-1.4) scale(0.816)"><path d="M0,-10 C1.2,-10 1.8,-8.5 1.8,-6 L1.8,-2 L9,2 L9,4 L1.8,2.6 L1.8,6 L4.2,8.2 L4.2,9.4 L0,8.1 L-4.2,9.4 L-4.2,8.2 L-1.8,6 L-1.8,2.6 L-9,4 L-9,2 L-1.8,-2 L-1.8,-6 C-1.8,-8.5 -1.2,-10 0,-10 Z"/></g><g transform="translate(2.8,264.8) rotate(22.2) scale(0.778)"><path d="M-4,8 V-8 H8 M-4,-8 L-7,-4 M-4,-4 L2,-8 M8,-8 V-4 L5,-1 M5,-1 V1.2"/><circle cx="-4" cy="9.4" r="1.3"/></g><g transform="translate(362.8,264.8) rotate(22.2) scale(0.778)"><path d="M-4,8 V-8 H8 M-4,-8 L-7,-4 M-4,-4 L2,-8 M8,-8 V-4 L5,-1 M5,-1 V1.2"/><circle cx="-4" cy="9.4" r="1.3"/></g><g transform="translate(31.7,269.7) rotate(19.7) scale(0.906)"><path d="M0,-9 C-4.8,-9 -8.5,-5.3 -8.5,-0.5 C-8.5,6 0,10 0,10 C0,10 8.5,6 8.5,-0.5 C8.5,-5.3 4.8,-9 0,-9 Z"/><circle cy="-0.5" r="3.1"/></g><g transform="translate(-27.2,295.8) rotate(16.5) scale(0.981)"><path d="M0,-10 C1.2,-10 1.8,-8.5 1.8,-6 L1.8,-2 L9,2 L9,4 L1.8,2.6 L1.8,6 L4.2,8.2 L4.2,9.4 L0,8.1 L-4.2,9.4 L-4.2,8.2 L-1.8,6 L-1.8,2.6 L-9,4 L-9,2 L-1.8,-2 L-1.8,-6 C-1.8,-8.5 -1.2,-10 0,-10 Z"/></g><g transform="translate(332.8,295.8) rotate(16.5) scale(0.981)"><path d="M0,-10 C1.2,-10 1.8,-8.5 1.8,-6 L1.8,-2 L9,2 L9,4 L1.8,2.6 L1.8,6 L4.2,8.2 L4.2,9.4 L0,8.1 L-4.2,9.4 L-4.2,8.2 L-1.8,6 L-1.8,2.6 L-9,4 L-9,2 L-1.8,-2 L-1.8,-6 C-1.8,-8.5 -1.2,-10 0,-10 Z"/></g><g transform="translate(21.9,293.7) rotate(22.5) scale(0.981)"><rect x="-9.5" y="-5" width="19" height="10"/><path d="M-5.5,-5 V5 M-1.5,-5 V5 M2.5,-5 V5 M6.5,-5 V5"/></g><g transform="translate(381.9,293.7) rotate(22.5) scale(0.981)"><rect x="-9.5" y="-5" width="19" height="10"/><path d="M-5.5,-5 V5 M-1.5,-5 V5 M2.5,-5 V5 M6.5,-5 V5"/></g><g transform="translate(58.8,288.7) rotate(7.3) scale(0.828)"><path d="M0,-9 V6 M-9,-5.5 H9 M-3.5,8 H3.5"/><path d="M-9,-5.5 L-11.3,0 H-6.7 Z M9,-5.5 L6.7,0 H11.3 Z"/></g><g transform="translate(93.2,299.2) rotate(-13.2) scale(0.954)"><path d="M-9,2 H9 L6.5,7.5 H-6.5 Z"/><rect x="-5" y="-4" width="4" height="6"/><rect x="0.6" y="-4" width="4" height="6"/><path d="M2,-7 H4.4 V-4"/><path d="M-9,9.6 Q-6.5,11.1 -4,9.6 T1,9.6 T6,9.6 T9,9.6"/></g><g transform="translate(128.4,297.8) rotate(-5.1) scale(0.864)"><path d="M0,-9 V6 M-9,-5.5 H9 M-3.5,8 H3.5"/><path d="M-9,-5.5 L-11.3,0 H-6.7 Z M9,-5.5 L6.7,0 H11.3 Z"/></g><g transform="translate(176.4,308.0) rotate(18.3) scale(0.812)"><rect x="-9.5" y="-5" width="19" height="10"/><path d="M-5.5,-5 V5 M-1.5,-5 V5 M2.5,-5 V5 M6.5,-5 V5"/></g><g transform="translate(209.4,295.3) rotate(-10.8) scale(0.795)"><rect x="-7" y="-6" width="14" height="13"/><path d="M-7,-1.5 H7 M0,-6 V7 M-7,-6 L0,-9.5 L7,-6"/></g><g transform="translate(270.3,293.7) rotate(13.9) scale(0.881)"><path d="M-9,2 H9 L6.5,7.5 H-6.5 Z"/><rect x="-5" y="-4" width="4" height="6"/><rect x="0.6" y="-4" width="4" height="6"/><path d="M2,-7 H4.4 V-4"/><path d="M-9,9.6 Q-6.5,11.1 -4,9.6 T1,9.6 T6,9.6 T9,9.6"/></g><g transform="translate(297.6,309.2) rotate(-11.5) scale(0.812)"><path d="M0,-10 C1.2,-10 1.8,-8.5 1.8,-6 L1.8,-2 L9,2 L9,4 L1.8,2.6 L1.8,6 L4.2,8.2 L4.2,9.4 L0,8.1 L-4.2,9.4 L-4.2,8.2 L-1.8,6 L-1.8,2.6 L-9,4 L-9,2 L-1.8,-2 L-1.8,-6 C-1.8,-8.5 -1.2,-10 0,-10 Z"/></g><g transform="translate(331.7,298.9) rotate(23.4) scale(0.990)"><path d="M-9,2 H9 L6.5,7.5 H-6.5 Z"/><rect x="-5" y="-4" width="4" height="6"/><rect x="0.6" y="-4" width="4" height="6"/><path d="M2,-7 H4.4 V-4"/><path d="M-9,9.6 Q-6.5,11.1 -4,9.6 T1,9.6 T6,9.6 T9,9.6"/></g><g transform="translate(23.5,310.7) rotate(-23.5) scale(0.889)"><rect x="-9.5" y="-3" width="19" height="3"/><path d="M-9.5,6 H9.5 M-7,3 V6 M0,3 V6 M7,3 V6 M-9.5,3 V0 M9.5,3 V0"/></g><g transform="translate(383.5,310.7) rotate(-23.5) scale(0.889)"><rect x="-9.5" y="-3" width="19" height="3"/><path d="M-9.5,6 H9.5 M-7,3 V6 M0,3 V6 M7,3 V6 M-9.5,3 V0 M9.5,3 V0"/></g><g transform="translate(-3.5,-25.9) rotate(-14.7) scale(0.773)"><path d="M0,-9 V6 M-9,-5.5 H9 M-3.5,8 H3.5"/><path d="M-9,-5.5 L-11.3,0 H-6.7 Z M9,-5.5 L6.7,0 H11.3 Z"/></g><g transform="translate(-3.5,334.1) rotate(-14.7) scale(0.773)"><path d="M0,-9 V6 M-9,-5.5 H9 M-3.5,8 H3.5"/><path d="M-9,-5.5 L-11.3,0 H-6.7 Z M9,-5.5 L6.7,0 H11.3 Z"/></g><g transform="translate(356.5,-25.9) rotate(-14.7) scale(0.773)"><path d="M0,-9 V6 M-9,-5.5 H9 M-3.5,8 H3.5"/><path d="M-9,-5.5 L-11.3,0 H-6.7 Z M9,-5.5 L6.7,0 H11.3 Z"/></g><g transform="translate(356.5,334.1) rotate(-14.7) scale(0.773)"><path d="M0,-9 V6 M-9,-5.5 H9 M-3.5,8 H3.5"/><path d="M-9,-5.5 L-11.3,0 H-6.7 Z M9,-5.5 L6.7,0 H11.3 Z"/></g><g transform="translate(44.6,-15.5) rotate(17.4) scale(0.877)"><rect x="-7" y="-6" width="14" height="13"/><path d="M-7,-1.5 H7 M0,-6 V7 M-7,-6 L0,-9.5 L7,-6"/></g><g transform="translate(44.6,344.5) rotate(17.4) scale(0.877)"><rect x="-7" y="-6" width="14" height="13"/><path d="M-7,-1.5 H7 M0,-6 V7 M-7,-6 L0,-9.5 L7,-6"/></g><g transform="translate(69.6,-27.5) rotate(9.3) scale(0.988)"><rect x="-9.5" y="-3" width="19" height="3"/><path d="M-9.5,6 H9.5 M-7,3 V6 M0,3 V6 M7,3 V6 M-9.5,3 V0 M9.5,3 V0"/></g><g transform="translate(69.6,332.5) rotate(9.3) scale(0.988)"><rect x="-9.5" y="-3" width="19" height="3"/><path d="M-9.5,6 H9.5 M-7,3 V6 M0,3 V6 M7,3 V6 M-9.5,3 V0 M9.5,3 V0"/></g><g transform="translate(131.3,-27.7) rotate(14.2) scale(0.832)"><circle r="8.5"/><path d="M0,-8.5 V-6.6 M0,8.5 V6.6 M-8.5,0 H-6.6 M8.5,0 H6.6 M0,0.4 V-5 M0,0.4 L4,2.4"/></g><g transform="translate(131.3,332.3) rotate(14.2) scale(0.832)"><circle r="8.5"/><path d="M0,-8.5 V-6.6 M0,8.5 V6.6 M-8.5,0 H-6.6 M8.5,0 H6.6 M0,0.4 V-5 M0,0.4 L4,2.4"/></g><g transform="translate(168.4,-27.9) rotate(-16.1) scale(0.946)"><path d="M-8.5,0 A8.5,8.5 0 0,1 8.5,0 Z M0,0 V7 Q0,9.2 2.4,9.2 M-8.5,0 Q-6.4,-2.4 -4.25,0 T0,0 T4.25,0 T8.5,0"/></g><g transform="translate(168.4,332.1) rotate(-16.1) scale(0.946)"><path d="M-8.5,0 A8.5,8.5 0 0,1 8.5,0 Z M0,0 V7 Q0,9.2 2.4,9.2 M-8.5,0 Q-6.4,-2.4 -4.25,0 T0,0 T4.25,0 T8.5,0"/></g><g transform="translate(209.8,328.3) rotate(-0.9) scale(0.791)"><rect x="-7" y="-6" width="14" height="13"/><path d="M-7,-1.5 H7 M0,-6 V7 M-7,-6 L0,-9.5 L7,-6"/></g><g transform="translate(247.6,329.3) rotate(20.8) scale(0.773)"><path d="M0,-9 C-4.8,-9 -8.5,-5.3 -8.5,-0.5 C-8.5,6 0,10 0,10 C0,10 8.5,6 8.5,-0.5 C8.5,-5.3 4.8,-9 0,-9 Z"/><circle cy="-0.5" r="3.1"/></g><g transform="translate(283.0,329.7) rotate(3.8) scale(0.790)"><rect x="-9" y="-4" width="10.5" height="9"/><path d="M1.5,-0.5 H6.6 L9.6,2.5 V5 H1.5"/><circle cx="-5" cy="6.6" r="2"/><circle cx="6" cy="6.6" r="2"/></g><g transform="translate(309.5,330.9) rotate(23.9) scale(0.946)"><path d="M-4,8 V-8 H8 M-4,-8 L-7,-4 M-4,-4 L2,-8 M8,-8 V-4 L5,-1 M5,-1 V1.2"/><circle cx="-4" cy="9.4" r="1.3"/></g><g transform="translate(0.6,-27.4) rotate(23.5) scale(0.798)"><path d="M-8.5,0 A8.5,8.5 0 0,1 8.5,0 Z M0,0 V7 Q0,9.2 2.4,9.2 M-8.5,0 Q-6.4,-2.4 -4.25,0 T0,0 T4.25,0 T8.5,0"/></g><g transform="translate(0.6,332.6) rotate(23.5) scale(0.798)"><path d="M-8.5,0 A8.5,8.5 0 0,1 8.5,0 Z M0,0 V7 Q0,9.2 2.4,9.2 M-8.5,0 Q-6.4,-2.4 -4.25,0 T0,0 T4.25,0 T8.5,0"/></g><g transform="translate(360.6,-27.4) rotate(23.5) scale(0.798)"><path d="M-8.5,0 A8.5,8.5 0 0,1 8.5,0 Z M0,0 V7 Q0,9.2 2.4,9.2 M-8.5,0 Q-6.4,-2.4 -4.25,0 T0,0 T4.25,0 T8.5,0"/></g><g transform="translate(360.6,332.6) rotate(23.5) scale(0.798)"><path d="M-8.5,0 A8.5,8.5 0 0,1 8.5,0 Z M0,0 V7 Q0,9.2 2.4,9.2 M-8.5,0 Q-6.4,-2.4 -4.25,0 T0,0 T4.25,0 T8.5,0"/></g><g transform="translate(37.4,-17.8) rotate(-8.8) scale(0.967)"><path d="M-9,2 H9 L6.5,7.5 H-6.5 Z"/><rect x="-5" y="-4" width="4" height="6"/><rect x="0.6" y="-4" width="4" height="6"/><path d="M2,-7 H4.4 V-4"/><path d="M-9,9.6 Q-6.5,11.1 -4,9.6 T1,9.6 T6,9.6 T9,9.6"/></g><g transform="translate(37.4,342.2) rotate(-8.8) scale(0.967)"><path d="M-9,2 H9 L6.5,7.5 H-6.5 Z"/><rect x="-5" y="-4" width="4" height="6"/><rect x="0.6" y="-4" width="4" height="6"/><path d="M2,-7 H4.4 V-4"/><path d="M-9,9.6 Q-6.5,11.1 -4,9.6 T1,9.6 T6,9.6 T9,9.6"/></g><g transform="translate(330.5,13.3) rotate(-6.7) scale(0.816)"><rect x="-9" y="-4" width="10.5" height="9"/><path d="M1.5,-0.5 H6.6 L9.6,2.5 V5 H1.5"/><circle cx="-5" cy="6.6" r="2"/><circle cx="6" cy="6.6" r="2"/></g><g transform="translate(330.5,373.3) rotate(-6.7) scale(0.816)"><rect x="-9" y="-4" width="10.5" height="9"/><path d="M1.5,-0.5 H6.6 L9.6,2.5 V5 H1.5"/><circle cx="-5" cy="6.6" r="2"/><circle cx="6" cy="6.6" r="2"/></g><g transform="translate(22.4,21.1) rotate(16.1) scale(0.766)"><circle r="8.5"/><ellipse rx="3.6" ry="8.5"/><path d="M-8.5,0 H8.5 M-7.5,-4.2 H7.5 M-7.5,4.2 H7.5"/></g><g transform="translate(22.4,381.1) rotate(16.1) scale(0.766)"><circle r="8.5"/><ellipse rx="3.6" ry="8.5"/><path d="M-8.5,0 H8.5 M-7.5,-4.2 H7.5 M-7.5,4.2 H7.5"/></g><g transform="translate(382.4,21.1) rotate(16.1) scale(0.766)"><circle r="8.5"/><ellipse rx="3.6" ry="8.5"/><path d="M-8.5,0 H8.5 M-7.5,-4.2 H7.5 M-7.5,4.2 H7.5"/></g><g transform="translate(382.4,381.1) rotate(16.1) scale(0.766)"><circle r="8.5"/><ellipse rx="3.6" ry="8.5"/><path d="M-8.5,0 H8.5 M-7.5,-4.2 H7.5 M-7.5,4.2 H7.5"/></g><g transform="translate(49.7,22.8) rotate(4.3) scale(0.959)"><path d="M-9,2 H9 L6.5,7.5 H-6.5 Z"/><rect x="-5" y="-4" width="4" height="6"/><rect x="0.6" y="-4" width="4" height="6"/><path d="M2,-7 H4.4 V-4"/><path d="M-9,9.6 Q-6.5,11.1 -4,9.6 T1,9.6 T6,9.6 T9,9.6"/></g><g transform="translate(49.7,382.8) rotate(4.3) scale(0.959)"><path d="M-9,2 H9 L6.5,7.5 H-6.5 Z"/><rect x="-5" y="-4" width="4" height="6"/><rect x="0.6" y="-4" width="4" height="6"/><path d="M2,-7 H4.4 V-4"/><path d="M-9,9.6 Q-6.5,11.1 -4,9.6 T1,9.6 T6,9.6 T9,9.6"/></g><g transform="translate(100.0,22.3) rotate(22.0) scale(0.864)"><path d="M-4,8 V-8 H8 M-4,-8 L-7,-4 M-4,-4 L2,-8 M8,-8 V-4 L5,-1 M5,-1 V1.2"/><circle cx="-4" cy="9.4" r="1.3"/></g><g transform="translate(100.0,382.3) rotate(22.0) scale(0.864)"><path d="M-4,8 V-8 H8 M-4,-8 L-7,-4 M-4,-4 L2,-8 M8,-8 V-4 L5,-1 M5,-1 V1.2"/><circle cx="-4" cy="9.4" r="1.3"/></g><g transform="translate(128.0,13.2) rotate(-2.2) scale(0.915)"><circle r="8.5"/><ellipse rx="3.6" ry="8.5"/><path d="M-8.5,0 H8.5 M-7.5,-4.2 H7.5 M-7.5,4.2 H7.5"/></g><g transform="translate(128.0,373.2) rotate(-2.2) scale(0.915)"><circle r="8.5"/><ellipse rx="3.6" ry="8.5"/><path d="M-8.5,0 H8.5 M-7.5,-4.2 H7.5 M-7.5,4.2 H7.5"/></g><g transform="translate(188.6,15.0) rotate(1.8) scale(0.789)"><circle cy="-7" r="2.2"/><path d="M0,-4.8 V7.6 M-4,-3.5 H4 M-8,2.5 Q-8,8 0,8 Q8,8 8,2.5 M-8,2.5 l-1.8,-1.3 M-8,2.5 l1.8,-1.3 M8,2.5 l-1.8,-1.3 M8,2.5 l1.8,-1.3"/></g><g transform="translate(188.6,375.0) rotate(1.8) scale(0.789)"><circle cy="-7" r="2.2"/><path d="M0,-4.8 V7.6 M-4,-3.5 H4 M-8,2.5 Q-8,8 0,8 Q8,8 8,2.5 M-8,2.5 l-1.8,-1.3 M-8,2.5 l1.8,-1.3 M8,2.5 l-1.8,-1.3 M8,2.5 l1.8,-1.3"/></g><g transform="translate(214.3,31.3) rotate(-0.3) scale(0.925)"><rect x="-9.5" y="-5" width="19" height="10"/><path d="M-5.5,-5 V5 M-1.5,-5 V5 M2.5,-5 V5 M6.5,-5 V5"/></g><g transform="translate(264.5,11.8) rotate(16.0) scale(0.807)"><rect x="-9.5" y="-3" width="19" height="3"/><path d="M-9.5,6 H9.5 M-7,3 V6 M0,3 V6 M7,3 V6 M-9.5,3 V0 M9.5,3 V0"/></g><g transform="translate(264.5,371.8) rotate(16.0) scale(0.807)"><rect x="-9.5" y="-3" width="19" height="3"/><path d="M-9.5,6 H9.5 M-7,3 V6 M0,3 V6 M7,3 V6 M-9.5,3 V0 M9.5,3 V0"/></g><g transform="translate(311.1,8.8) rotate(13.6) scale(0.883)"><path d="M-4,8 V-8 H8 M-4,-8 L-7,-4 M-4,-4 L2,-8 M8,-8 V-4 L5,-1 M5,-1 V1.2"/><circle cx="-4" cy="9.4" r="1.3"/></g><g transform="translate(311.1,368.8) rotate(13.6) scale(0.883)"><path d="M-4,8 V-8 H8 M-4,-8 L-7,-4 M-4,-4 L2,-8 M8,-8 V-4 L5,-1 M5,-1 V1.2"/><circle cx="-4" cy="9.4" r="1.3"/></g><g transform="translate(-24.7,12.1) rotate(-16.2) scale(0.825)"><path d="M-4,8 V-8 H8 M-4,-8 L-7,-4 M-4,-4 L2,-8 M8,-8 V-4 L5,-1 M5,-1 V1.2"/><circle cx="-4" cy="9.4" r="1.3"/></g><g transform="translate(-24.7,372.1) rotate(-16.2) scale(0.825)"><path d="M-4,8 V-8 H8 M-4,-8 L-7,-4 M-4,-4 L2,-8 M8,-8 V-4 L5,-1 M5,-1 V1.2"/><circle cx="-4" cy="9.4" r="1.3"/></g><g transform="translate(335.3,12.1) rotate(-16.2) scale(0.825)"><path d="M-4,8 V-8 H8 M-4,-8 L-7,-4 M-4,-4 L2,-8 M8,-8 V-4 L5,-1 M5,-1 V1.2"/><circle cx="-4" cy="9.4" r="1.3"/></g><g transform="translate(335.3,372.1) rotate(-16.2) scale(0.825)"><path d="M-4,8 V-8 H8 M-4,-8 L-7,-4 M-4,-4 L2,-8 M8,-8 V-4 L5,-1 M5,-1 V1.2"/><circle cx="-4" cy="9.4" r="1.3"/></g><g transform="translate(28.5,15.9) rotate(18.2) scale(0.993)"><path d="M0,-9 C-4.8,-9 -8.5,-5.3 -8.5,-0.5 C-8.5,6 0,10 0,10 C0,10 8.5,6 8.5,-0.5 C8.5,-5.3 4.8,-9 0,-9 Z"/><circle cy="-0.5" r="3.1"/></g><g transform="translate(28.5,375.9) rotate(18.2) scale(0.993)"><path d="M0,-9 C-4.8,-9 -8.5,-5.3 -8.5,-0.5 C-8.5,6 0,10 0,10 C0,10 8.5,6 8.5,-0.5 C8.5,-5.3 4.8,-9 0,-9 Z"/><circle cy="-0.5" r="3.1"/></g>
<circle cx="247.9" cy="255.1" r="1.64"/><circle cx="33.0" cy="269.4" r="2.03"/><circle cx="242.5" cy="236.7" r="2.55"/><circle cx="241.9" cy="59.7" r="2.25"/><circle cx="196.3" cy="353.2" r="2.49"/><circle cx="191.7" cy="342.8" r="2.59"/><circle cx="252.8" cy="146.4" r="2.56"/><circle cx="116.4" cy="140.9" r="2.06"/><circle cx="94.3" cy="222.9" r="2.00"/><circle cx="43.6" cy="227.5" r="2.19"/><circle cx="344.4" cy="103.4" r="2.59"/><circle cx="35.2" cy="342.1" r="1.89"/><circle cx="184.5" cy="185.8" r="2.31"/><circle cx="138.1" cy="173.0" r="2.19"/><circle cx="171.9" cy="125.8" r="2.26"/><circle cx="170.8" cy="198.1" r="1.87"/><circle cx="292.8" cy="52.9" r="1.78"/><circle cx="316.2" cy="124.2" r="2.59"/><circle cx="15.3" cy="279.2" r="2.41"/><circle cx="279.2" cy="74.1" r="2.10"/><circle cx="146.6" cy="81.8" r="2.55"/><circle cx="182.7" cy="56.7" r="2.53"/><circle cx="77.6" cy="129.4" r="2.27"/><circle cx="142.0" cy="43.2" r="2.40"/><circle cx="215.9" cy="207.5" r="2.42"/><circle cx="195.4" cy="274.5" r="1.78"/><circle cx="174.8" cy="84.7" r="2.27"/><circle cx="40.1" cy="309.8" r="2.17"/><circle cx="323.6" cy="234.9" r="1.86"/><circle cx="52.4" cy="346.0" r="1.93"/><circle cx="253.0" cy="321.1" r="2.17"/><circle cx="336.5" cy="90.4" r="1.69"/><circle cx="242.0" cy="31.3" r="1.62"/><circle cx="321.3" cy="49.3" r="2.31"/><circle cx="257.8" cy="220.4" r="1.77"/><circle cx="94.6" cy="113.3" r="1.73"/><circle cx="247.8" cy="91.2" r="1.66"/><circle cx="145.8" cy="127.6" r="2.06"/><circle cx="285.7" cy="61.3" r="1.62"/><circle cx="144.6" cy="97.1" r="2.01"/><circle cx="143.6" cy="318.2" r="2.28"/><circle cx="107.0" cy="43.8" r="1.95"/><circle cx="85.4" cy="229.4" r="2.37"/><circle cx="23.9" cy="281.3" r="2.14"/><circle cx="135.6" cy="268.6" r="2.17"/><circle cx="312.4" cy="-0.5" r="1.71"/><circle cx="312.4" cy="359.5" r="1.71"/><circle cx="281.5" cy="179.3" r="2.24"/><circle cx="144.6" cy="320.9" r="1.66"/><circle cx="157.5" cy="202.3" r="2.09"/><circle cx="215.6" cy="190.4" r="1.67"/><circle cx="73.7" cy="77.5" r="1.90"/><circle cx="35.8" cy="62.9" r="2.24"/><circle cx="243.2" cy="223.0" r="2.38"/><circle cx="183.2" cy="152.6" r="1.62"/><circle cx="134.5" cy="251.3" r="2.24"/><circle cx="41.5" cy="91.2" r="2.07"/><circle cx="271.6" cy="-2.3" r="1.90"/><circle cx="271.6" cy="357.7" r="1.90"/><circle cx="89.6" cy="60.5" r="2.04"/><circle cx="336.2" cy="79.7" r="1.94"/><circle cx="67.2" cy="346.9" r="1.91"/><circle cx="279.5" cy="66.1" r="2.18"/><circle cx="148.6" cy="178.2" r="2.04"/><circle cx="166.4" cy="222.2" r="2.24"/><circle cx="85.5" cy="200.6" r="2.43"/><circle cx="142.9" cy="275.7" r="2.06"/><circle cx="82.7" cy="290.6" r="2.40"/><circle cx="92.7" cy="293.8" r="2.03"/><circle cx="171.7" cy="31.0" r="1.69"/><circle cx="37.4" cy="155.9" r="1.66"/><circle cx="87.3" cy="262.6" r="2.40"/>
</g>
</svg>